<svg width="24" height="25" viewBox="0 0 24 25" fill="none" xmlns="http://www.w3.org/2000/svg">
<g clip-path="url(#clip0_17_1527)">
<path fill-rule="evenodd" clip-rule="evenodd" d="M20.0306 6.95937L14.7806 1.70937C14.6399 1.56875 14.449 1.48983 14.25 1.48999H5.25C4.42157 1.48999 3.75 2.16156 3.75 2.98999V19.49C3.75 20.3184 4.42157 20.99 5.25 20.99H18.75C19.5784 20.99 20.25 20.3184 20.25 19.49V7.48999C20.2502 7.29102 20.1712 7.10014 20.0306 6.95937ZM15 4.0503L17.6897 6.73999H15V4.0503ZM18.75 19.49H5.25V2.98999H13.5V7.48999C13.5 7.9042 13.8358 8.23999 14.25 8.23999H18.75V19.49ZM15 13.49C15 13.9042 14.6642 14.24 14.25 14.24H9.75C9.33579 14.24 9 13.9042 9 13.49C9 13.0758 9.33579 12.74 9.75 12.74H14.25C14.6642 12.74 15 13.0758 15 13.49Z" fill="#121417"/>
</g>
<defs>
<clipPath id="clip0_17_1527">
<rect width="24" height="24" fill="white" transform="translate(0 0.23999)"/>
</clipPath>
</defs>
</svg>
