<svg width="24" height="25" viewBox="0 0 24 25" fill="none" xmlns="http://www.w3.org/2000/svg">
<g clip-path="url(#clip0_17_1534)">
<path fill-rule="evenodd" clip-rule="evenodd" d="M10.9922 15.045C13.0561 13.671 13.9769 11.1077 13.2592 8.7344C12.5414 6.36113 10.3544 4.73771 7.875 4.73771C5.39558 4.73771 3.20857 6.36113 2.49084 8.7344C1.7731 11.1077 2.69393 13.671 4.75781 15.045C2.93952 15.7151 1.38666 16.9553 0.330938 18.5803C0.179932 18.8047 0.161484 19.0931 0.28266 19.3349C0.403836 19.5768 0.645857 19.7346 0.916031 19.7481C1.18621 19.7615 1.44266 19.6283 1.58719 19.3997C2.97076 17.2717 5.33677 15.9879 7.875 15.9879C10.4132 15.9879 12.7792 17.2717 14.1628 19.3997C14.3917 19.7399 14.8514 19.8332 15.1948 19.6092C15.5382 19.3852 15.6381 18.9269 15.4191 18.5803C14.3633 16.9553 12.8105 15.7151 10.9922 15.045ZM3.75 10.365C3.75 8.08682 5.59683 6.23999 7.875 6.23999C10.1532 6.23999 12 8.08682 12 10.365C12 12.6432 10.1532 14.49 7.875 14.49C5.5979 14.4874 3.75258 12.6421 3.75 10.365ZM23.4506 19.6181C23.1037 19.8443 22.6391 19.7465 22.4128 19.3997C21.0308 17.2703 18.6636 15.9866 16.125 15.99C15.7108 15.99 15.375 15.6542 15.375 15.24C15.375 14.8258 15.7108 14.49 16.125 14.49C17.7863 14.4884 19.2846 13.4904 19.9261 11.958C20.5677 10.4255 20.2273 8.65779 19.0626 7.47311C17.898 6.28843 16.1363 5.91804 14.5931 6.53343C14.3427 6.6417 14.0531 6.6054 13.8372 6.43863C13.6212 6.27187 13.5128 6.00096 13.5542 5.73124C13.5956 5.46153 13.7802 5.23557 14.0363 5.14124C16.7109 4.07456 19.7592 5.2 21.099 7.74882C22.4388 10.2976 21.6374 13.4467 19.2422 15.045C21.0605 15.7151 22.6133 16.9553 23.6691 18.5803C23.8953 18.9272 23.7975 19.3918 23.4506 19.6181Z" fill="#121417"/>
</g>
<defs>
<clipPath id="clip0_17_1534">
<rect width="24" height="24" fill="white" transform="translate(0 0.23999)"/>
</clipPath>
</defs>
</svg>
