<svg width="24" height="25" viewBox="0 0 24 25" fill="none" xmlns="http://www.w3.org/2000/svg">
<g clip-path="url(#clip0_17_1519)">
<path fill-rule="evenodd" clip-rule="evenodd" d="M20.0306 7.95937L14.7806 2.70937C14.6399 2.56876 14.449 2.48984 14.25 2.49H5.25C4.42157 2.49 3.75 3.16157 3.75 3.99V20.49C3.75 21.3184 4.42157 21.99 5.25 21.99H18.75C19.5784 21.99 20.25 21.3184 20.25 20.49V8.49C20.2502 8.29103 20.1712 8.10015 20.0306 7.95937ZM14.25 15.24H12.75V16.74C12.75 17.1542 12.4142 17.49 12 17.49C11.5858 17.49 11.25 17.1542 11.25 16.74V15.24H9.75C9.33579 15.24 9 14.9042 9 14.49C9 14.0758 9.33579 13.74 9.75 13.74H11.25V12.24C11.25 11.8258 11.5858 11.49 12 11.49C12.4142 11.49 12.75 11.8258 12.75 12.24V13.74H14.25C14.6642 13.74 15 14.0758 15 14.49C15 14.9042 14.6642 15.24 14.25 15.24ZM14.25 8.49V4.30031L18.4397 8.49H14.25Z" fill="#121417"/>
</g>
<defs>
<clipPath id="clip0_17_1519">
<rect width="24" height="24" fill="white" transform="translate(0 0.239998)"/>
</clipPath>
</defs>
</svg>
